<svg id="visual" viewBox="0 0 675 200" width="675" height="200" xmlns="http://www.w3.org/2000/svg" xmlns:xlink="http://www.w3.org/1999/xlink" version="1.1"><path d="M0 121L18.8 112C37.7 103 75.3 85 112.8 88.5C150.3 92 187.7 117 225.2 131C262.7 145 300.3 148 337.8 142C375.3 136 412.7 121 450.2 126.8C487.7 132.7 525.3 159.3 562.8 173.3C600.3 187.3 637.7 188.7 656.3 189.3L675 190L675 0L656.3 0C637.7 0 600.3 0 562.8 0C525.3 0 487.7 0 450.2 0C412.7 0 375.3 0 337.8 0C300.3 0 262.7 0 225.2 0C187.7 0 150.3 0 112.8 0C75.3 0 37.7 0 18.8 0L0 0Z" fill="#c20025" stroke-linecap="round" stroke-linejoin="miter"></path></svg>