<svg id="visual" viewBox="0 0 675 900" width="675" height="900" xmlns="http://www.w3.org/2000/svg" xmlns:xlink="http://www.w3.org/1999/xlink" version="1.1"><path d="M0 752L16 749C32 746 64 740 96.2 742C128.3 744 160.7 754 192.8 760.3C225 766.7 257 769.3 289.2 765.8C321.3 762.3 353.7 752.7 385.8 743.3C418 734 450 725 482.2 718.3C514.3 711.7 546.7 707.3 578.8 704C611 700.7 643 698.3 659 697.2L675 696L675 901L659 901C643 901 611 901 578.8 901C546.7 901 514.3 901 482.2 901C450 901 418 901 385.8 901C353.7 901 321.3 901 289.2 901C257 901 225 901 192.8 901C160.7 901 128.3 901 96.2 901C64 901 32 901 16 901L0 901Z" fill="#c20025" stroke-linecap="round" stroke-linejoin="miter"></path></svg>