<svg xmlns="http://www.w3.org/2000/svg" xmlns:xlink="http://www.w3.org/1999/xlink" width="180" height="93.299" viewBox="0 0 180 93.299">
    <path d="M155.983,170.6l-9.78-10.142V170.6h-1.944V150.942H146.2v8.944l9.1-8.944h2.424l-9.352,9.144,10.119,10.5Z" transform="translate(-103.325 -107.626)" fill="#0085ca"/>
	<path d="M201.062,154.474a1.367,1.367,0,0,1,0-2.734,1.368,1.368,0,0,1,0,2.734m-.928,3.22h1.831v13.473h-1.831Z" transform="translate(-143.044 -108.195)" fill="#0085ca"/>
	<path d="M220.507,174.773c-2.084,0-3.466-.826-3.466-3.3v-8.8h-2.054v-1.594h2.054v-4.417l1.832-.178v4.594h3.07l.254,1.594h-3.324v8.49c0,1.366.535,1.964,1.973,1.964a7.383,7.383,0,0,0,1.238-.144l.282,1.568a7.077,7.077,0,0,1-1.859.228" transform="translate(-153.984 -111.573)" fill="#0085ca"/>
	<path d="M250.682,185.532c-3.407,0-6.028-2.564-6.028-7.009,0-4.531,2.7-7.037,6.085-7.037a7.244,7.244,0,0,1,4.338,1.368l-.309,1.88a5.991,5.991,0,0,0-4.057-1.623c-2.536,0-4.169,2.079-4.169,5.385,0,3.333,1.634,5.384,4.338,5.384a5.823,5.823,0,0,0,4.055-1.594l.254,1.707a6.926,6.926,0,0,1-4.506,1.539" transform="translate(-175.233 -122.275)" fill="#0085ca"/>
	<path d="M299.12,169.819v-9.287c0-1.736-.788-2.791-2.479-2.791-1.41,0-2.845.882-4.31,2.336v9.742h-1.861V150.035l1.861-.185v8.4a7.141,7.141,0,0,1,4.673-2.194c2.649,0,3.974,1.541,3.974,4.105v9.655Z" transform="translate(-208.049 -106.847)" fill="#0085ca"/>
	<path d="M347.739,178.635h-9.267c.057,3.306,1.578,5.273,4.254,5.273a7.177,7.177,0,0,0,4.7-1.993l.281,1.708a7.692,7.692,0,0,1-5.1,1.909c-3.493,0-6-2.392-6-7.036,0-4.332,2.479-7.011,5.746-7.011,3.633,0,5.38,3.021,5.38,6.752ZM342.359,173c-2.085,0-3.437,1.566-3.8,4.159h7.267c-.2-2.422-1.323-4.159-3.464-4.159" transform="translate(-241.098 -122.274)" fill="#0085ca"/>
	<path d="M394.09,185.246v-9.287c0-1.736-.79-2.791-2.48-2.791-1.408,0-2.845.882-4.31,2.336v9.742h-1.859V171.773h1.436l.311,1.993a7.294,7.294,0,0,1,4.789-2.281c2.647,0,3.97,1.541,3.97,4.132v9.629Z" transform="translate(-276.071 -122.274)" fill="#0085ca"/>
	<path d="M442.7,178.635h-9.265c.055,3.306,1.577,5.273,4.253,5.273a7.173,7.173,0,0,0,4.7-1.993l.282,1.708a7.691,7.691,0,0,1-5.1,1.909c-3.493,0-6-2.392-6-7.036,0-4.332,2.479-7.011,5.748-7.011,3.633,0,5.378,3.021,5.378,6.752ZM437.324,173c-2.086,0-3.436,1.566-3.805,4.159h7.269c-.2-2.422-1.324-4.159-3.464-4.159" transform="translate(-309.115 -122.274)" fill="#0085ca"/>
	<path d="M482.266,176.784v8.461h-1.857V171.773h1.38l.421,2.762a5.98,5.98,0,0,1,4.733-3.049l.309,1.769a6.329,6.329,0,0,0-4.986,3.53" transform="translate(-344.091 -122.274)" fill="#0085ca"/>
	<path d="M4.366,250.119H1.943v8.289H0V238.752H4.815c3.917,0,6.367,1.994,6.367,5.527,0,3.873-2.844,5.84-6.816,5.84m.311-9.628H1.943v7.89H4.452c2.958,0,4.759-1.311,4.759-4.044,0-2.536-1.577-3.846-4.533-3.846" transform="translate(0 -170.237)" fill="#0085ca"/>
	<path d="M56.714,273.766l-.309-1.993a7.3,7.3,0,0,1-4.791,2.276c-2.674,0-3.97-1.564-3.97-4.13v-9.629H49.5v9.287c0,1.738.787,2.764,2.479,2.764,1.408,0,2.844-.853,4.309-2.308v-9.743h1.859v13.475Z" transform="translate(-34.125 -185.595)" fill="#0085ca"/>
	<path d="M101.51,257.011a14.282,14.282,0,0,1-4.845-.883v-19.4l1.857-.176v8.58a5.475,5.475,0,0,1,4.114-2.05c2.9,0,5.352,2.137,5.352,6.637,0,4.929-2.788,7.294-6.478,7.294m.929-12.25c-1.493,0-2.733.939-3.917,2.335v7.75a7.645,7.645,0,0,0,3.072.542c2.648,0,4.507-1.738,4.507-5.585,0-3.275-1.548-5.042-3.661-5.042" transform="translate(-69.236 -168.668)" fill="#0085ca"/>
	<path d="M145.073,256.834V236.722l1.83-.178v20.29Z" transform="translate(-103.908 -168.663)" fill="#0085ca"/>
	<path d="M164.072,242.279a1.368,1.368,0,0,1,0-2.737,1.369,1.369,0,0,1,0,2.737m-.93,3.218h1.832v13.475h-1.832Z" transform="translate(-116.547 -170.801)" fill="#0085ca"/>
	<path d="M186.017,273.344c-3.407,0-6.028-2.561-6.028-7.007,0-4.529,2.706-7.036,6.085-7.036a7.228,7.228,0,0,1,4.338,1.369l-.311,1.878a5.993,5.993,0,0,0-4.055-1.623c-2.535,0-4.169,2.079-4.169,5.385,0,3.331,1.634,5.384,4.337,5.384a5.829,5.829,0,0,0,4.057-1.6l.254,1.71a6.941,6.941,0,0,1-4.508,1.537" transform="translate(-128.917 -184.89)" fill="#0085ca"/>
	<path d="M248.07,258.409V238.952l1.943-.2v17.889h7.773v1.767Z" transform="translate(-177.68 -170.238)" fill="#0085ca"/>
	<path d="M290.288,242.279a1.368,1.368,0,0,1,0-2.737,1.369,1.369,0,0,1,0,2.737m-.929,3.218h1.831v13.475H289.36Z" transform="translate(-206.95 -170.801)" fill="#0085ca"/>
	<path d="M313.958,257.006a14.3,14.3,0,0,1-4.846-.883v-19.4l1.861-.178v8.582a5.468,5.468,0,0,1,4.111-2.05c2.9,0,5.353,2.137,5.353,6.637,0,4.929-2.789,7.294-6.479,7.294m.93-12.25c-1.493,0-2.733.939-3.915,2.335v7.751a7.637,7.637,0,0,0,3.07.542c2.648,0,4.507-1.738,4.507-5.585,0-3.275-1.55-5.042-3.661-5.042" transform="translate(-221.4 -168.663)" fill="#0085ca"/>
	<path d="M359.424,264.6v8.461h-1.861V259.587h1.382l.423,2.766A5.969,5.969,0,0,1,364.1,259.3l.311,1.765a6.327,6.327,0,0,0-4.986,3.532" transform="translate(-256.103 -184.891)" fill="#0085ca"/>
	<path d="M394.342,273.062l-.309-1.794a6.818,6.818,0,0,1-4.7,2.077c-2.31,0-3.972-1.282-3.972-3.674,0-3.16,2.536-4.644,8.564-5.242v-.882c0-1.825-1.07-2.593-2.761-2.593a10.6,10.6,0,0,0-4.592,1.2l-.254-1.68a11.793,11.793,0,0,1,4.959-1.167c2.956,0,4.478,1.4,4.478,4.159v9.6Zm-.421-7.15c-5.24.542-6.7,1.824-6.7,3.645a2.117,2.117,0,0,0,2.4,2.195,6.665,6.665,0,0,0,4.309-2.022Z" transform="translate(-276.011 -184.891)" fill="#0085ca"/>
	<path d="M435.55,264.6v8.461h-1.859V259.587h1.381l.421,2.766a5.97,5.97,0,0,1,4.733-3.049l.309,1.765a6.33,6.33,0,0,0-4.986,3.532" transform="translate(-310.63 -184.891)" fill="#0085ca"/>
	<path d="M468.372,275.446c-.957,2.622-2.14,3.448-4.11,3.448a4.747,4.747,0,0,1-.735-.086l-.252-1.652a5.646,5.646,0,0,0,1.1.115c1.1,0,1.747-.487,2.253-1.8l.62-1.623-5.1-13.561h1.918l4.08,11.31,3.943-11.31h1.916Z" transform="translate(-331.013 -185.594)" fill="#0085ca"/>
	<path d="M567.413,3.794a1.131,1.131,0,0,0-.7-1.491L559.829.058a1.113,1.113,0,0,0-1.434.794l-3.1,11.865,3.074,3.823-1.354,4.253,2.954,3.311Z" transform="translate(-397.725 0)" fill="#0085ca"/>
	<path d="M588.573,51.221a1.128,1.128,0,0,0,.923-1.365l-1.515-7.147a1.119,1.119,0,0,0-1.4-.861L575.02,45.031l-3.258,8.882Z" transform="translate(-409.523 -29.81)" fill="#004b87"/>
	<path d="M489.345,61.308a1.129,1.129,0,0,0-.923,1.365l1.532,7.144a1.116,1.116,0,0,0,1.4.857l11.7-3.236,1.731-4.61,4.311-.943,1.355-4.253Z" transform="translate(-349.812 -41.094)" fill="#d0df00"/>
	<path d="M509.721,10.057a1.11,1.11,0,0,0-1.632-.125l-5.355,4.913A1.138,1.138,0,0,0,502.7,16.5l8.521,8.517,9.233-1.608Z" transform="translate(-359.815 -6.868)" fill="#64a70b"/>
	<path d="M559.789,90.057a1.105,1.105,0,0,0,1.628.126l5.357-4.907a1.139,1.139,0,0,0,.037-1.653l-8.608-8.63-4.821.772-2.954-3.311L546.1,73.4Z" transform="translate(-391.143 -51.662)" fill="#e24585"/>
	<path d="M524.538,91.809a1.132,1.132,0,0,0,.707,1.491l6.883,2.238a1.115,1.115,0,0,0,1.434-.793L536.6,83.037l-6-7.3Z" transform="translate(-375.644 -54.001)" fill="#ad1d97"/>
</svg>
