<svg id="visual" viewBox="0 0 900 110" width="900" height="110" xmlns="http://www.w3.org/2000/svg" xmlns:xlink="http://www.w3.org/1999/xlink" version="1.1"><path d="M0 96L16.7 95.8C33.3 95.7 66.7 95.3 100 91C133.3 86.7 166.7 78.3 200 78.3C233.3 78.3 266.7 86.7 300 87.2C333.3 87.7 366.7 80.3 400 80.5C433.3 80.7 466.7 88.3 500 86.7C533.3 85 566.7 74 600 69.2C633.3 64.3 666.7 65.7 700 70.3C733.3 75 766.7 83 800 88.5C833.3 94 866.7 97 883.3 98.5L900 100L900 0L883.3 0C866.7 0 833.3 0 800 0C766.7 0 733.3 0 700 0C666.7 0 633.3 0 600 0C566.7 0 533.3 0 500 0C466.7 0 433.3 0 400 0C366.7 0 333.3 0 300 0C266.7 0 233.3 0 200 0C166.7 0 133.3 0 100 0C66.7 0 33.3 0 16.7 0L0 0Z" fill="#c20025" stroke-linecap="round" stroke-linejoin="miter"></path></svg>