<svg id="visual" viewBox="0 0 900 100" width="900" height="100" xmlns="http://www.w3.org/2000/svg" xmlns:xlink="http://www.w3.org/1999/xlink" version="1.1"><path d="M0 72L15 67.8C30 63.7 60 55.3 90 51.3C120 47.3 150 47.7 180 51.8C210 56 240 64 270 66.3C300 68.7 330 65.3 360 62.2C390 59 420 56 450 53.7C480 51.3 510 49.7 540 53.3C570 57 600 66 630 68.2C660 70.3 690 65.7 720 62.2C750 58.7 780 56.3 810 54.2C840 52 870 50 885 49L900 48L900 101L885 101C870 101 840 101 810 101C780 101 750 101 720 101C690 101 660 101 630 101C600 101 570 101 540 101C510 101 480 101 450 101C420 101 390 101 360 101C330 101 300 101 270 101C240 101 210 101 180 101C150 101 120 101 90 101C60 101 30 101 15 101L0 101Z" fill="#c20125" stroke-linecap="round" stroke-linejoin="miter"></path></svg>