<svg id="visual" viewBox="0 0 900 100" width="900" height="100" xmlns="http://www.w3.org/2000/svg" xmlns:xlink="http://www.w3.org/1999/xlink" version="1.1"><path d="M0 5L12.5 13.7C25 22.3 50 39.7 75 47.3C100 55 125 53 150 52.2C175 51.3 200 51.7 225 44.3C250 37 275 22 300 26.8C325 31.7 350 56.3 375 58C400 59.7 425 38.3 450 34.2C475 30 500 43 525 55C550 67 575 78 600 74.5C625 71 650 53 675 44.8C700 36.7 725 38.3 750 35.7C775 33 800 26 825 32.3C850 38.7 875 58.3 887.5 68.2L900 78L900 101L887.5 101C875 101 850 101 825 101C800 101 775 101 750 101C725 101 700 101 675 101C650 101 625 101 600 101C575 101 550 101 525 101C500 101 475 101 450 101C425 101 400 101 375 101C350 101 325 101 300 101C275 101 250 101 225 101C200 101 175 101 150 101C125 101 100 101 75 101C50 101 25 101 12.5 101L0 101Z" fill="#c20025" stroke-linecap="round" stroke-linejoin="miter"></path></svg>