<svg id="visual" viewBox="0 0 900 70" width="900" height="70" xmlns="http://www.w3.org/2000/svg" xmlns:xlink="http://www.w3.org/1999/xlink" version="1.1"><path d="M0 53L21.5 51.3C43 49.7 86 46.3 128.8 45.7C171.7 45 214.3 47 257.2 52.2C300 57.3 343 65.7 385.8 68C428.7 70.3 471.3 66.7 514.2 61.3C557 56 600 49 642.8 45.7C685.7 42.3 728.3 42.7 771.2 47.2C814 51.7 857 60.3 878.5 64.7L900 69L900 0L878.5 0C857 0 814 0 771.2 0C728.3 0 685.7 0 642.8 0C600 0 557 0 514.2 0C471.3 0 428.7 0 385.8 0C343 0 300 0 257.2 0C214.3 0 171.7 0 128.8 0C86 0 43 0 21.5 0L0 0Z" fill="#ba001f" stroke-linecap="round" stroke-linejoin="miter"></path></svg>