<svg id="visual" viewBox="0 0 900 600" width="900" height="600" xmlns="http://www.w3.org/2000/svg" xmlns:xlink="http://www.w3.org/1999/xlink" version="1.1"><rect x="0" y="0" width="900" height="600" fill="#002233"></rect><path d="M0 74L37.5 76.3C75 78.7 150 83.3 225 99.7C300 116 375 144 450 146.5C525 149 600 126 675 129.8C750 133.7 825 164.3 862.5 179.7L900 195L900 0L862.5 0C825 0 750 0 675 0C600 0 525 0 450 0C375 0 300 0 225 0C150 0 75 0 37.5 0L0 0Z" fill="#ba001f" stroke-linecap="round" stroke-linejoin="miter"></path></svg>